<?xml version="1.0" encoding="utf-8"?>
<!-- Generator: Adobe Illustrator 27.0.1, SVG Export Plug-In . SVG Version: 6.00 Build 0)  -->
<svg version="1.1" id="Layer_1" xmlns="http://www.w3.org/2000/svg" xmlns:xlink="http://www.w3.org/1999/xlink" x="0px" y="0px"
	 viewBox="0 0 800 800" style="enable-background:new 0 0 800 800;" xml:space="preserve">
<style type="text/css">
	.st0{fill:#2B3535;}
	.st1{fill:#A3A3A3;}
	.st2{fill:#394444;}
	.st3{fill:#C6C6C6;}
	.st4{fill:#919191;}
</style>
<path class="st0" d="M744.9,476.1c-18.4,0-32.8-14.4-32.8-32.8c0-170.5-139-310.8-310.8-310.8c-170.5,0-310.8,139-310.8,310.8
	c0,18.4-14.4,32.8-32.8,32.8s-32.8-14.4-32.8-32.8c0-207.2,169.2-376.4,376.4-376.4s376.4,169.2,376.4,376.4
	C777.7,461.6,763.3,476.1,744.9,476.1z"/>
<path class="st1" d="M401.3,131.1c-190.2,0-348.9,143-372.5,326.6c5.2,10.5,17,18.4,30.2,18.4c18.4,0,32.8-14.4,32.8-32.8
	c0-170.5,139-310.8,310.8-310.8c170.5,0,310.8,139,310.8,310.8c0,18.4,14.4,32.8,32.8,32.8c13.1,0,23.6-7.9,30.2-18.4
	C750.2,272.8,591.5,131.1,401.3,131.1z"/>
<path class="st2" d="M678,654.4c0,32.8,27.5,60.3,60.3,60.3h1.3c32.8,0,60.3-27.5,60.3-60.3V522c0-32.8-27.5-60.3-60.3-60.3h-1.3
	c-32.8,0-60.3,27.5-60.3,60.3V654.4z"/>
<path class="st0" d="M678,522v132.5c0,32.8,27.5,60.3,60.3,60.3h1.3c32.8,0,60.3-27.5,60.3-60.3V522"/>
<path class="st3" d="M603.3,678c0,30.2,24.9,55.1,55.1,55.1h51.1c30.2,0,55.1-24.9,55.1-55.1V465.6c0-30.2-24.9-55.1-55.1-55.1
	h-51.1c-30.2,0-55.1,24.9-55.1,55.1V678z"/>
<path class="st4" d="M709.5,410.5h-51.1c-30.2,0-55.1,24.9-55.1,55.1V678c0,30.2,24.9,55.1,55.1,55.1h51.1
	c30.2,0,55.1-24.9,55.1-55.1"/>
<path class="st2" d="M709.5,410.5h-51.1c-30.2,0-55.1,24.9-55.1,55.1V678c0,30.2,24.9,55.1,55.1,55.1h51.1"/>
<path class="st0" d="M709.5,410.5h-65.6c-30.2,0-40.7,24.9-40.7,55.1V678c0,30.2,24.9,55.1,55.1,55.1"/>
<path class="st2" d="M122,654.4c0,32.8-27.5,60.3-60.3,60.3h-1.3C27.5,714.8,0,687.2,0,654.4V522c0-32.8,27.5-60.3,60.3-60.3h1.3
	c32.8,0,60.3,27.5,60.3,60.3C122,522,122,654.4,122,654.4z"/>
<path class="st0" d="M122,522v132.5c0,32.8-27.5,60.3-60.3,60.3h-1.3C27.5,714.8,0,687.2,0,654.4V522"/>
<path class="st3" d="M196.7,678c0,30.2-24.9,55.1-55.1,55.1H90.5c-30.2,0-55.1-24.9-55.1-55.1V465.6c0-30.2,24.9-55.1,55.1-55.1
	h51.1c30.2,0,55.1,24.9,55.1,55.1L196.7,678L196.7,678z"/>
<path class="st4" d="M90.5,410.5h51.1c30.2,0,55.1,24.9,55.1,55.1V678c0,30.2-24.9,55.1-55.1,55.1H90.5c-30.2,0-55.1-24.9-55.1-55.1
	"/>
<path class="st2" d="M90.5,410.5h51.1c30.2,0,55.1,24.9,55.1,55.1V678c0,30.2-24.9,55.1-55.1,55.1H90.5"/>
<path class="st0" d="M90.5,410.5h65.6c30.2,0,40.7,24.9,40.7,55.1V678c0,30.2-24.9,55.1-55.1,55.1"/>
</svg>
